<?xml version="1.0" encoding="utf-8"?>
<!-- Generator: Adobe Illustrator 18.1.0, SVG Export Plug-In . SVG Version: 6.00 Build 0)  -->
<svg version="1.1" xmlns="http://www.w3.org/2000/svg" xmlns:xlink="http://www.w3.org/1999/xlink" x="0px" y="0px"
	 viewBox="0 0 16383 16383" enable-background="new 0 0 16383 16383" xml:space="preserve">
<g id="Layer_1">
</g>
<g id="Layer_2">
	<g>
		<g>
			<path fill="#898989" d="M10767.2,7954h1059c353,0,547.2,141.2,547.2,511.9c0,335.4-229.5,511.9-547.2,511.9h-1059V7954z
				 M10114.1,11148.8h1712.1c970.8,0,1376.7-458.9,1376.7-1041.4c0-511.9-247.1-864.9-706-970.8l0,0
				c335.4-141.2,529.5-423.6,529.5-794.3c0-617.8-441.3-917.8-1112-917.8h-1800.4V11148.8z M10767.2,9454.3h1164.9
				c406,0,635.4,211.8,635.4,582.5c0,370.7-229.5,600.1-635.4,600.1h-1164.9V9454.3z"/>
			<path fill="#898989" d="M6795.8,9913.2c17.7,917.8,706,1341.4,1553.2,1341.4c741.3,0,1482.6-335.4,1482.6-1164.9
				c0-388.3-229.5-811.9-723.7-953.1c-194.2-53-1023.7-264.8-1076.7-282.4c-264.8-70.6-441.3-211.8-441.3-476.6
				c0-370.7,388.3-494.2,688.4-494.2c441.3,0,776.6,176.5,811.9,653.1h653.1c0-776.6-653.1-1200.2-1429.7-1200.2
				c-670.7,0-1359.1,353-1359.1,1094.3c0,388.3,194.2,776.6,829.6,953.1c511.9,141.2,847.2,211.8,1112,300.1
				c158.9,53,300.1,176.5,300.1,458.9s-211.8,564.8-794.3,564.8c-529.5,0-953.1-229.5-953.1-794.3H6795.8z"/>
			<path fill="#898989" d="M13379.5,9913.2c17.7,917.8,706,1341.4,1553.2,1341.4c741.3,0,1482.6-335.4,1482.6-1164.9
				c0-388.3-229.5-811.9-723.7-953.1c-194.2-53-1023.7-264.8-1076.7-282.4c-264.8-70.6-441.3-211.8-441.3-476.6
				c0-370.7,388.3-494.2,688.4-494.2c441.3,0,776.6,176.5,811.9,653.1h653.1c0-776.6-653.1-1200.2-1429.7-1200.2
				c-670.7,0-1359.1,353-1359.1,1094.3c0,388.3,194.2,776.6,829.6,953.1c511.9,141.2,847.2,211.8,1112,300.1
				c158.9,53,300.1,176.5,300.1,458.9s-211.8,564.8-794.3,564.8c-529.5,0-953.1-229.5-953.1-794.3H13379.5z"/>
			<path fill="#898989" d="M7378.3,3682.6c0,0-1923.9,1659.1-3441.9,5171.6s-1429.7,6036.5-1429.7,6036.5
				s1923.9-1659.1,3441.9-5171.6C7466.5,6224.3,7378.3,3682.6,7378.3,3682.6"/>
			<path fill="#898989" d="M5013.1,4388.6c0,0-1429.7,1235.5-2541.7,3830.2c-1129.6,2594.6-1059,4465.6-1059,4465.6
				s1429.7-1235.5,2541.7-3830.2C5083.7,6259.6,5013.1,4388.6,5013.1,4388.6"/>
			<path fill="#898989" d="M3265.7,4900.5c0,0-1059,917.8-1888.6,2841.7s-776.6,3318.3-776.6,3318.3s1059-917.8,1888.6-2841.7
				S3265.7,4900.5,3265.7,4900.5"/>
			<path fill="#898989" d="M1977.2,5288.8c0,0-776.6,670.7-1394.4,2100.4S0.4,9860.3,0.4,9860.3S777,9189.5,1394.8,7759.9
				S1977.2,5288.8,1977.2,5288.8"/>
		</g>
	</g>
</g>
</svg>
